<mxfile host="app.diagrams.net" modified="2024-05-07T13:51:56.596Z" agent="Mozilla/5.0 (Macintosh; Intel Mac OS X 10_15_7) AppleWebKit/537.36 (KHTML, like Gecko) Chrome/124.0.0.0 Safari/537.36" version="24.3.1" etag="_KOi9emwU2kc-jVOrGCd" type="github">
  <diagram name="Page-1" id="aZV5QACT8vw6dy8T0__U">
    <mxGraphModel>
      <root>
        <mxCell id="0" />
        <mxCell id="1" parent="0" />
      </root>
    </mxGraphModel>
  </diagram>
</mxfile>
